<?xml version="1.0" encoding="UTF-8"?>
<svg id="Layer_1" data-name="Layer 1" xmlns="http://www.w3.org/2000/svg" viewBox="0 0 1778.89 796.29">
  <defs>
    <style>
      .cls-1 {
        fill: #fff;
      }
    </style>
  </defs>
  <path class="cls-1" d="M1645.83,169.26l-172.59,43.22-123.73-127.85-172.59,43.22L1053.2,0l-185.61,46.48-48.71,170.55-160.68,40.24-123.73-127.85-172.59,43.22-123.73-127.85L52.55,91.28,0,275.26l123.73,127.85-48.85,171.05,133.06,137.5,172.59-43.22,123.73,127.85,185.61-46.48,48.85-171.05,160.18-40.12,124.08,128.22,172.59-43.22,123.73,127.85,185.61-46.48,48.85-171.05,172.59-43.22,52.55-183.98-133.06-137.5ZM1182.57,150.41l159.57-39.96,114.39,118.21-45.17,158.14-159.57,39.96-114.39-118.21,45.17-158.14ZM886.26,65.78l159.57-39.96,114.39,118.21-45.17,158.14-159.6,39.97-114.37-118.18,45.17-158.17ZM367.53,195.2l159.57-39.96,114.39,118.21-45.17,158.14-159.57,39.96-114.39-118.21,45.17-158.14ZM26.04,268.74l45.17-158.17,159.57-39.96,114.39,118.21-45.17,158.14-159.6,39.97-114.37-118.18ZM374.88,645.89l-159.57,39.96-114.39-118.21,45.17-158.14,159.57-39.96,114.39,118.21-45.17,158.14ZM671.19,730.51l-159.57,39.96-114.39-118.21,45.17-158.14,159.57-39.96,114.39,118.21-45.17,158.14ZM733.09,556.2l-114.41-118.23,45.17-158.14,159.57-39.96,114.39,118.21-45.17,158.17-159.53,39.95ZM1189.92,601.09l-159.57,39.96-114.39-118.21,45.17-158.14,159.57-39.96,114.39,118.21-45.17,158.14ZM1486.23,685.72l-159.57,39.96-114.39-118.21,45.17-158.14,159.57-39.96,114.39,118.21-45.17,158.14ZM1707.67,471.45l-159.53,39.95-114.41-118.23,45.17-158.14,159.57-39.96,114.39,118.21-45.17,158.17Z"/>
</svg>