<?xml version="1.0" encoding="UTF-8"?>
<svg id="Layer_1" data-name="Layer 1" xmlns="http://www.w3.org/2000/svg" viewBox="0 0 977.8 1426.73">
  <defs>
    <style>
      .cls-1 {
        fill: #fff;
      }
    </style>
  </defs>
  <path class="cls-1" d="M0,945.32l144.02,249.46h267.79l133.92,231.96h288.05l144.02-249.46-133.92-231.96,133.92-231.96-133.92-231.96,133.92-231.96L833.78,0h-288.05l-133.92,231.96H144.02L0,481.41l133.92,231.96L0,945.32ZM40.41,945.32l123.82-214.46h247.58l123.82,214.46-123.82,214.46h-247.58l-123.82-214.46ZM813.57,1391.73h-247.63l-123.79-214.41,123.84-214.5h247.58l123.82,214.46-123.82,214.46ZM813.57,927.82h-247.58l-123.82-214.46,123.82-214.46h247.58l123.82,214.46-123.82,214.46ZM565.94,35h247.63l123.82,214.46-123.82,214.46h-247.58l-123.84-214.5,123.79-214.41ZM164.23,266.96h247.58l123.82,214.46-123.82,214.46h-247.58l-123.82-214.46,123.82-214.46Z"/>
</svg>