<?xml version="1.0" encoding="UTF-8"?>
<svg id="Layer_1" data-name="Layer 1" xmlns="http://www.w3.org/2000/svg" viewBox="0 0 977.8 1426.73">
  <defs>
    <style>
      .cls-1 {
        fill: #fff;
      }
    </style>
  </defs>
  <path class="cls-1" d="M977.8,481.41l-144.02-249.46h-267.79L432.07,0H144.02L0,249.46l133.92,231.96L0,713.37l133.92,231.96L0,1177.28l144.02,249.46h288.05l133.92-231.96h267.79l144.02-249.46-133.92-231.96,133.92-231.96ZM937.39,481.41l-123.82,214.46h-247.58l-123.82-214.46,123.82-214.46h247.58l123.82,214.46ZM164.23,35h247.63l123.79,214.41-123.84,214.5h-247.58L40.42,249.46,164.23,35ZM164.23,498.91h247.58l123.82,214.46-123.82,214.46h-247.58l-123.82-214.46,123.82-214.46ZM411.86,1391.73h-247.63l-123.82-214.46,123.82-214.46h247.58l123.84,214.5-123.79,214.41ZM813.57,1159.78h-247.58l-123.82-214.46,123.82-214.46h247.58l123.82,214.46-123.82,214.46Z"/>
</svg>